<?xml version="1.0" encoding="UTF-8"?>
<svg xmlns="http://www.w3.org/2000/svg" version="1.1" viewBox="0 0 213.7 198">
  <defs>
    <style>
      .cls-1 {
        fill: #f06a6a;
        fill-rule: evenodd;
      }
    </style>
  </defs>
  <!-- Generator: Adobe Illustrator 28.6.0, SVG Export Plug-In . SVG Version: 1.2.0 Build 709)  -->
  <g>
    <g id="Capa_1">
      <path class="cls-1" d="M167.2,104.6c-25.7,0-46.5,20.8-46.5,46.5s20.8,46.5,46.5,46.5,46.5-20.8,46.5-46.5-20.8-46.5-46.5-46.5h0ZM46.5,104.6C20.8,104.6,0,125.4,0,151s20.8,46.5,46.5,46.5,46.5-20.8,46.5-46.5-20.8-46.5-46.5-46.5h0ZM153.3,46.5c0,25.7-20.8,46.5-46.5,46.5s-46.5-20.8-46.5-46.5S81.2,0,106.8,0s46.5,20.8,46.5,46.5h0Z"/>
    </g>
  </g>
</svg>