<?xml version="1.0" encoding="UTF-8"?>
<svg xmlns="http://www.w3.org/2000/svg" version="1.1" viewBox="0 0 216 215.9">
  <defs>
    <style>
      .cls-1 {
        fill: #fff;
      }
    </style>
  </defs>
  <!-- Generator: Adobe Illustrator 28.6.0, SVG Export Plug-In . SVG Version: 1.2.0 Build 709)  -->
  <g>
    <g id="Capa_1">
      <g>
        <rect class="cls-1" x="7" y="7" width="202" height="202" rx="23" ry="23"/>
        <path d="M186,14c8.8,0,16,7.2,16,16v156c0,8.8-7.2,16-16,16H30c-8.8,0-16-7.2-16-16V30c0-8.8,7.2-16,16-16h156M186,0H30C13.4,0,0,13.4,0,30v156c0,16.6,13.4,30,30,30h156c16.6,0,30-13.4,30-30V30C216,13.4,202.6,0,186,0h0Z"/>
      </g>
      <path d="M20.6,64.4c1.3-11.6,10.9-20.6,22.6-21.1h99.5c7.2.6,13.8,4.4,17.9,10.4,1.8,2.7,3.1,5.7,3.8,8.9l29.2-14.5c.6-.3,1.4,0,1.7.6,0,.1.1.3.1.4v16.4c0,1.1-.6,2.1-1.7,2.6-26.9,13.3-53.8,26.7-80.7,40.1l80.6,39.9c1.1.4,1.8,1.3,1.9,2.4v16.5c0,.7-.6,1.4-1.3,1.4-.3,0-.6,0-.8-.3-9.6-4.9-19.3-9.4-28.8-14.4-.6,2.3-1.5,4.5-2.6,6.7-3.3,6-8.9,10.4-15.5,12-2.2.5-4.4.6-6.7.5H47c-2.1,0-4.2,0-6.3-.2-10.8-1.6-19.1-10.3-20.2-21.2v-15.9c.2-1.4,1.1-2.5,2.4-2.9,16.5-8.2,33-16.4,49.6-24.6-16.7-8.3-33.4-16.6-50.1-24.9-1.2-.5-1.9-1.7-1.9-2.9,0-5.3-.1-10.6,0-15.9ZM39,64.5c-1,2-.5,4.3-.6,6.5,18.2,9,36.3,18,54.5,27,18-8.9,35.9-17.8,53.9-26.7,0-1.6,0-3.2,0-4.9-.4-3-3-5.2-6.1-5.2H44.5c-2.3,0-4.5,1.2-5.6,3.3h0ZM38.4,145.1c0,2.2-.4,4.5.7,6.6,1.1,2,3.2,3.3,5.5,3.2h96.2c2.2,0,4.2-1.1,5.3-3,1.2-2.1.7-4.7.8-7-18-8.9-36-17.9-54-26.7-18.2,9-36.3,18-54.4,27h0Z"/>
    </g>
  </g>
</svg>