<?xml version="1.0" encoding="UTF-8"?>
<svg xmlns="http://www.w3.org/2000/svg" version="1.1" viewBox="0 0 126.4 127">
  <defs>
    <style>
      .cls-1 {
        fill: #36c5f0;
      }

      .cls-2 {
        fill: #e01e5a;
      }

      .cls-3 {
        fill: #ecb22e;
      }

      .cls-4 {
        fill: #2eb67d;
      }
    </style>
  </defs>
  <!-- Generator: Adobe Illustrator 28.6.0, SVG Export Plug-In . SVG Version: 1.2.0 Build 709)  -->
  <g>
    <g id="Capa_1">
      <path class="cls-2" d="M27.2,80c0,7.3-5.9,13.2-13.2,13.2S.8,87.3.8,80s5.9-13.2,13.2-13.2h13.2v13.2ZM33.8,80c0-7.3,5.9-13.2,13.2-13.2s13.2,5.9,13.2,13.2v33c0,7.3-5.9,13.2-13.2,13.2s-13.2-5.9-13.2-13.2v-33Z"/>
      <path class="cls-1" d="M47,27c-7.3,0-13.2-5.9-13.2-13.2S39.7.6,47,.6s13.2,5.9,13.2,13.2v13.2h-13.2ZM47,33.7c7.3,0,13.2,5.9,13.2,13.2s-5.9,13.2-13.2,13.2H13.9c-7.3,0-13.2-5.9-13.2-13.2s5.9-13.2,13.2-13.2h33.1Z"/>
      <path class="cls-4" d="M99.9,46.9c0-7.3,5.9-13.2,13.2-13.2s13.2,5.9,13.2,13.2-5.9,13.2-13.2,13.2h-13.2v-13.2ZM93.3,46.9c0,7.3-5.9,13.2-13.2,13.2s-13.2-5.9-13.2-13.2V13.8c0-7.3,5.9-13.2,13.2-13.2s13.2,5.9,13.2,13.2c0,0,0,33.1,0,33.1Z"/>
      <path class="cls-3" d="M80.1,99.8c7.3,0,13.2,5.9,13.2,13.2s-5.9,13.2-13.2,13.2-13.2-5.9-13.2-13.2v-13.2h13.2ZM80.1,93.2c-7.3,0-13.2-5.9-13.2-13.2s5.9-13.2,13.2-13.2h33.1c7.3,0,13.2,5.9,13.2,13.2s-5.9,13.2-13.2,13.2h-33.1Z"/>
    </g>
  </g>
</svg>