<?xml version="1.0" encoding="UTF-8"?>
<svg xmlns="http://www.w3.org/2000/svg" version="1.1" xmlns:xlink="http://www.w3.org/1999/xlink" viewBox="0 0 100 100">
  <defs>
    <style>
      .cls-1 {
        fill: url(#Degradado_sin_nombre_6);
      }
    </style>
    <linearGradient id="Degradado_sin_nombre_6" data-name="Degradado sin nombre 6" x1="24.13" y1="48.17" x2="94.5" y2="48.17" gradientUnits="userSpaceOnUse">
      <stop offset="0" stop-color="#e4afff"/>
      <stop offset="1" stop-color="#9d79ff"/>
    </linearGradient>
  </defs>
  <!-- Generator: Adobe Illustrator 28.6.0, SVG Export Plug-In . SVG Version: 1.2.0 Build 709)  -->
  <g>
    <g id="Capa_1">
      <path class="cls-1" d="M54.61,7.69c.23.48,2.58,6.92,9.37,12.06.62.42,1.22.86,1.86,1.24,5.3,3.21,7.81,7.99,8.37,14.08.37,3.99,2.87,14.46,3.49,15.89,2.68-1.38,5.17-2.65,7.64-3.94,3.47-1.82,5.58-1.21,7.54,2.13.42.72,1.04,1.31,1.6,2,.05-.06-.02.07-.05.06-2.55-.5-4.16.81-5.11,2.92-1.45,3.21-2.98,4.25-4.35,5.33h0c-2.2-1.31-4.89-2.63-6.73-4.36-5.3-4.97-8.58-11.11-9.58-18.39-.62-4.54-2.99-7.79-6.87-10.34-1.84-1.21-3.44-3.41-4.2-5.5-1.44-3.96-3.06-13.17-2.98-13.2ZM89.16,49.33c.34.46,1.05.45,1.43.02.08-.09.12-.17.11-.28,0-.07-.03-.14-.07-.2-.29-.46-.96-.5-1.34-.11-.11.11-.18.22-.2.34-.01.09.01.16.07.24ZM25.24,12.09c1.34,6.13,4.54,10.98,10.02,14.15,2.08,1.2,4.24,2.36,6.49,3.14,4.76,1.65,9.61,3.01,14.41,4.55,3.15,1.01,6.63,1.45,8.9,4.45-.54-1.8-1.09-3.58-2.07-5.07-2.86-4.34-6.63-7.72-11.52-9.64-3.38-1.33-6.83-2.49-10.28-3.64-6.33-2.11-11.76-5.43-15.5-11.13-.43-.65-.95-1.23-1.58-2.05.41,1.92.76,3.58,1.12,5.24ZM64.71,41.06c-4.88-4.74-11.09-6.13-17.58-6.6-7.44-.54-14.2-2.58-19.48-8.2-.13-.14-.3-.25-.65-.54.63,1.41,1.18,2.59,1.67,3.78,2.45,5.94,6.66,10.11,12.95,11.46,5.62,1.21,11.41,1.66,17.12,2.46,3.16.44,7.77,1.05,10.4,3.54.14-.12-3.06-4.57-4.43-5.9ZM36.03,46.29c2.78,3.83,6.46,6.2,11.17,6.96,4.96.8,9.86.06,14.78-.44,3.72-.38,7.47-1.74,11.32-.14-1.25-1.28-2.52-2.51-3.99-3.43-4.38-2.75-9.24-3.35-14.29-2.78-7.46.85-14.85,1.35-21.42-3.55.81,1.13,1.61,2.26,2.42,3.38ZM65.58,55.39c-2.37.55-4.68,1.43-6.98,2.29-4.86,1.82-9.74,2.2-14.7.29.89.88,1.8,1.63,2.7,2.38,3.45,2.83,7.44,4.12,11.76,3.04,4.26-1.06,8.39-2.68,12.57-4.07,2.38-.79,4.59-2.29,7.33-1.74-3.87-2.83-8.2-3.25-12.69-2.2ZM34.13,70.11c4.36,2.72,9.09,3.27,14.01,3.7-1.75,1.95-3.47,3.68-3.49,6.78,3.49-4.69,9.05-5.28,13.1-8.24,1.18,3.76,2.3,7.35,3.44,10.96.33-4.15-1.24-8.71,2.74-12.1-3.37-.86-6.19-1.88-7.97-4.75-6.83,3.93-13.98,5.14-21.83,3.65ZM79.61,60.51c-2.85-.21-5.02.3-7.36,1.92-3.65,2.53-7.15,5.38-12.07,4.92,3.24,2.01,6.61,2.72,9.98.92,2.64-1.41,4.4-3.49,6.92-5.14,1.39-.91,3.07-1.76,4.99-2.12-.45-.1-1.76-.44-2.46-.5ZM63.89,80.1c.69-2.58,2.07-4.56,4.58-5.73,1.86-.87,4.12-1.58,5.91-2.61,3.3-1.9,3.98-5.17,6.23-8.22-.23.02-6.17,5.54-9.84,6.82-6.08,2.12-7.91,5.71-7.59,11.98.34-1.06.56-1.64.72-2.24ZM57.88,87.11c1.62,1.28,2.84.47,2.84.47,0,0-.1.32-.73.65-1.12.59-2.81-.4-2.81-.4,0,0,.15,1.3,1.8,1.6s2.96-.55,3.21-2-.73-2.88-.75-2.7c-.35,2.76-3.56,2.38-3.56,2.38Z"/>
    </g>
  </g>
</svg>